# xmcd
#
# Track frame offsets: 
#        182
#        17640
#        41515
#        56970
#        77325
#        104322
#        121582
#        145212
#        163492
#        191350
#        218965
#        246385
#
# Disc length: 3572 seconds
#
# Revision: 2
# Processed by: cddbd v1.5.2PL0 Copyright (c) Steve Scherf et al.
# Submitted via: ExactAudioCopy v1.0b4
#
DISCID=a40df20c
DTITLE=Tony Remy - "Boof"
DYEAR=1994
DGENRE=R&B
TTITLE0=Glide
TTITLE1=Boof!
TTITLE2=Mercy Mercy Me (The Ecology)
TTITLE3=Different People
TTITLE4=Reginald Miller
TTITLE5=Fewitcha Funk
TTITLE6=Geraldine
TTITLE7=Our Love Grows
TTITLE8=Tro
TTITLE9=Hazel's Dream
TTITLE10=It's been a long time
TTITLE11=Return of the Pork Pie
EXTD=
EXTT0=
EXTT1=
EXTT2=
EXTT3=
EXTT4=
EXTT5=
EXTT6=
EXTT7=
EXTT8=
EXTT9=
EXTT10=
EXTT11=
PLAYORDER=
